<svg xmlns="http://www.w3.org/2000/svg" version="1.1" xmlns:xlink="http://www.w3.org/1999/xlink" xmlns:svgjs="http://svgjs.dev/svgjs" width="1440" height="1000" preserveAspectRatio="none" viewBox="0 0 1440 1000"><g mask="url(&quot;#SvgjsMask1523&quot;)" fill="none"><rect width="1440" height="1000" x="0" y="0" fill="url(&quot;#SvgjsLinearGradient1524&quot;)"></rect><path d="M1440 0L1060.84 0L1440 342.35z" fill="rgba(255, 255, 255, .1)"></path><path d="M1060.84 0L1440 342.35L1440 578.5600000000001L692.9299999999998 0z" fill="rgba(255, 255, 255, .075)"></path><path d="M692.93 0L1440 578.5600000000001L1440 700.8900000000001L691.3499999999999 0z" fill="rgba(255, 255, 255, .05)"></path><path d="M691.3499999999999 0L1440 700.8900000000001L1440 762.6500000000001L387.7399999999999 0z" fill="rgba(255, 255, 255, .025)"></path><path d="M0 1000L250.72 1000L0 580.23z" fill="rgba(0, 0, 0, .1)"></path><path d="M0 580.23L250.72 1000L354.4 1000L0 396.11z" fill="rgba(0, 0, 0, .075)"></path><path d="M0 396.11L354.4 1000L364.57 1000L0 236.8z" fill="rgba(0, 0, 0, .05)"></path><path d="M0 236.79999999999995L364.57 1000L400.51 1000L0 157.66999999999996z" fill="rgba(0, 0, 0, .025)"></path></g><defs><mask id="SvgjsMask1523"><rect width="1440" height="1000" fill="#ffffff"></rect></mask><linearGradient x1="7.64%" y1="-11%" x2="92.36%" y2="111%" gradientUnits="userSpaceOnUse" id="SvgjsLinearGradient1524"><stop stop-color="rgba(14, 42, 71, 1)" offset="0.32"></stop><stop stop-color="rgba(22, 71, 135, 1)" offset="1"></stop></linearGradient></defs></svg>