<svg xmlns="http://www.w3.org/2000/svg" version="1.1" xmlns:xlink="http://www.w3.org/1999/xlink" xmlns:svgjs="http://svgjs.dev/svgjs" width="1440" height="800" preserveAspectRatio="none" viewBox="0 0 1440 800"><g mask="url(&quot;#SvgjsMask1216&quot;)" fill="none"><rect width="1440" height="800" x="0" y="0" fill="rgba(0, 15, 34, 1)"></rect><path d="M0,581.903C110.385,587.274,219.948,546.135,308.389,479.863C393.474,416.105,424.932,309.74,482.497,220.349C551.519,113.167,670.863,29.298,680.406,-97.828C690.417,-231.181,628.505,-368.132,533.759,-462.505C441.41,-554.49,305.418,-583.022,176.192,-600.056C60.824,-615.263,-49.59,-581.396,-162.761,-554.314C-282.3,-525.708,-414.764,-521.145,-504.513,-437.163C-597.531,-350.122,-662.151,-221.278,-654.567,-94.113C-647.27,28.238,-533.956,110.862,-465.756,212.704C-409.703,296.407,-368.63,388.182,-289.686,450.76C-204.905,517.965,-108.059,576.645,0,581.903" fill="#000d1c"></path><path d="M1440 1156.667C1519.876 1164.85 1598.769 1189.606 1675.781 1166.883 1767.8029999999999 1139.731 1867.44 1100.311 1914.451 1016.674 1962.109 931.885 1942.989 825.577 1920.8609999999999 730.863 1900.047 641.7719999999999 1854.821 561.537 1792.474 494.58 1731.701 429.313 1658.628 369.804 1570.715 354.826 1486.509 340.48 1409.678 393.673 1327.037 415.282 1241.227 437.719 1128.601 413.132 1075.636 484.277 1022.025 556.29 1092.155 659.287 1079.242 748.131 1066.298 837.189 966.25 917.487 1000.5799999999999 1000.6759999999999 1034.62 1083.163 1149.254 1091.7060000000001 1233.347 1121.559 1300.554 1145.417 1369.055 1149.399 1440 1156.667" fill="#001228"></path></g><defs><mask id="SvgjsMask1216"><rect width="1440" height="800" fill="#ffffff"></rect></mask></defs></svg>